<svg data-v-423bf9ae="" xmlns="http://www.w3.org/2000/svg" viewBox="0 0 672 90" class="iconLeft"><!----><!----><!----><g data-v-423bf9ae="" id="8bec959c-e1fa-481f-9638-e7054f8c1ea1" fill="#221057" transform="matrix(4.691164986626563,0,0,4.691164986626563,152.04542083577752,-2.028930868827125)"><path d="M9.70 6.80C9.48 6.19 9.16 5.68 8.74 5.25C8.32 4.82 7.83 4.48 7.25 4.26C6.68 4.03 6.02 3.92 5.32 3.92L1.89 3.92L0.70 3.92L0.70 4.19C0.70 4.34 0.80 4.42 0.98 4.44L1.12 4.44C1.19 4.44 1.29 4.45 1.43 4.45C1.57 4.45 1.72 4.47 1.89 4.47L1.89 13.26C1.72 13.26 1.57 13.27 1.43 13.27C1.29 13.27 1.19 13.29 1.12 13.29L0.98 13.29C0.80 13.30 0.70 13.38 0.70 13.54L0.70 13.82L1.89 13.82L5.32 13.82C6.02 13.82 6.68 13.71 7.25 13.48C7.83 13.26 8.32 12.92 8.74 12.49C9.16 12.05 9.48 11.54 9.70 10.92C9.93 10.30 10.05 9.63 10.05 8.86C10.05 8.11 9.93 7.42 9.70 6.80ZM9.02 10.72C8.82 11.27 8.57 11.72 8.22 12.10C7.87 12.47 7.45 12.75 6.96 12.95C6.47 13.15 5.92 13.24 5.32 13.24L2.60 13.24L2.60 4.49L5.32 4.49C5.92 4.49 6.47 4.59 6.96 4.79C7.45 4.98 7.87 5.26 8.22 5.64C8.57 6.02 8.82 6.47 9.02 7.01C9.21 7.56 9.31 8.18 9.31 8.86C9.31 9.56 9.21 10.18 9.02 10.72ZM12.25 4.89C12.31 4.94 12.38 4.98 12.45 5.01C12.52 5.04 12.60 5.07 12.68 5.07C12.77 5.07 12.85 5.04 12.92 5.01C12.99 4.98 13.06 4.94 13.12 4.89C13.17 4.83 13.23 4.76 13.26 4.69C13.29 4.62 13.31 4.54 13.31 4.45C13.31 4.37 13.29 4.30 13.26 4.21C13.23 4.14 13.17 4.07 13.12 4.02C13.06 3.96 12.99 3.91 12.92 3.88C12.85 3.85 12.77 3.84 12.68 3.84C12.60 3.84 12.52 3.85 12.45 3.88C12.38 3.91 12.31 3.96 12.25 4.02C12.19 4.07 12.15 4.14 12.12 4.21C12.10 4.28 12.07 4.37 12.07 4.45C12.07 4.54 12.10 4.62 12.12 4.69C12.15 4.76 12.19 4.83 12.25 4.89ZM13.75 13.29L13.68 13.29L13.57 13.29C13.52 13.29 13.45 13.27 13.36 13.27C13.26 13.27 13.15 13.26 13.02 13.26L13.02 6.85L12.35 6.85L11.34 6.85L11.34 7.13C11.34 7.28 11.44 7.36 11.62 7.38L11.69 7.38C11.72 7.38 11.76 7.39 11.80 7.39L12.01 7.39C12.11 7.39 12.22 7.41 12.35 7.41L12.35 13.26C12.19 13.26 12.05 13.29 11.94 13.29L11.70 13.29L11.62 13.29C11.44 13.30 11.34 13.38 11.34 13.54L11.34 13.82L12.35 13.82L13.02 13.82L14.03 13.82L14.03 13.54C14.03 13.38 13.93 13.30 13.75 13.29ZM17.92 6.73C17.54 6.73 17.21 6.79 16.90 6.90C16.59 7.01 16.34 7.15 16.11 7.35C15.89 7.55 15.72 7.77 15.61 8.05C15.50 8.33 15.43 8.64 15.43 8.97C15.43 9.39 15.53 9.76 15.71 10.08C15.89 10.40 16.14 10.65 16.48 10.85C16.34 10.92 16.23 11.00 16.11 11.10C16.00 11.20 15.92 11.28 15.85 11.40C15.78 11.51 15.72 11.61 15.68 11.72C15.64 11.83 15.62 11.93 15.62 12.03C15.62 12.29 15.68 12.49 15.82 12.64C15.96 12.80 16.14 12.89 16.38 12.98C15.96 13.12 15.61 13.33 15.37 13.59C15.13 13.86 15.01 14.18 15.01 14.55C15.01 14.80 15.08 15.05 15.20 15.27C15.33 15.50 15.51 15.69 15.76 15.86C16.02 16.03 16.32 16.17 16.69 16.27C17.05 16.37 17.49 16.42 17.98 16.42C18.45 16.42 18.90 16.35 19.29 16.23C19.68 16.10 19.99 15.95 20.27 15.74C20.55 15.53 20.76 15.29 20.90 15.02C21.04 14.76 21.11 14.49 21.11 14.20C21.11 13.89 21.06 13.64 20.92 13.44C20.78 13.24 20.58 13.12 20.36 13.01C20.13 12.89 19.85 12.82 19.56 12.78C19.26 12.74 18.97 12.71 18.66 12.70C18.35 12.68 18.05 12.66 17.75 12.64C17.46 12.63 17.19 12.61 16.97 12.56C16.74 12.50 16.55 12.43 16.41 12.32C16.27 12.21 16.20 12.05 16.20 11.86C16.20 11.72 16.25 11.56 16.37 11.41C16.48 11.26 16.63 11.13 16.83 11.02C17.15 11.14 17.51 11.19 17.92 11.19C18.28 11.19 18.62 11.14 18.93 11.03C19.24 10.92 19.49 10.78 19.71 10.58C19.94 10.39 20.09 10.16 20.22 9.88C20.34 9.60 20.40 9.31 20.40 8.97C20.40 8.72 20.37 8.48 20.30 8.26C20.23 8.04 20.12 7.84 19.99 7.66L21.06 7.57C21.18 7.56 21.25 7.50 21.25 7.39L21.25 7.15L19.46 7.15C19.25 7.01 19.01 6.92 18.76 6.85C18.51 6.78 18.23 6.73 17.92 6.73ZM20.51 14.29C20.51 14.53 20.44 14.74 20.31 14.94C20.19 15.13 20.01 15.33 19.78 15.47C19.56 15.61 19.29 15.72 18.98 15.81C18.68 15.89 18.34 15.92 17.99 15.92C17.61 15.92 17.28 15.88 16.98 15.81C16.69 15.74 16.42 15.62 16.23 15.50C16.03 15.37 15.88 15.22 15.76 15.05C15.65 14.88 15.61 14.69 15.61 14.48C15.61 14.31 15.65 14.17 15.71 14.03C15.76 13.89 15.85 13.76 15.96 13.65C16.07 13.54 16.18 13.43 16.34 13.34C16.49 13.26 16.66 13.17 16.84 13.10C17.08 13.15 17.33 13.17 17.61 13.19C17.89 13.20 18.14 13.22 18.42 13.23C18.70 13.24 18.96 13.26 19.21 13.29C19.46 13.31 19.68 13.38 19.88 13.45C20.08 13.52 20.22 13.62 20.33 13.76C20.44 13.90 20.51 14.07 20.51 14.29ZM17.92 10.74C17.63 10.74 17.37 10.70 17.14 10.61C16.90 10.53 16.70 10.40 16.53 10.25C16.37 10.09 16.25 9.91 16.17 9.70C16.09 9.49 16.04 9.25 16.04 8.99C16.04 8.72 16.09 8.48 16.17 8.26C16.25 8.04 16.37 7.87 16.53 7.71C16.70 7.56 16.90 7.43 17.14 7.35C17.37 7.27 17.63 7.22 17.92 7.22C18.21 7.22 18.48 7.27 18.70 7.35C18.93 7.43 19.12 7.56 19.29 7.71C19.46 7.87 19.59 8.04 19.67 8.26C19.75 8.48 19.80 8.71 19.80 8.97C19.80 9.24 19.75 9.49 19.67 9.70C19.59 9.91 19.46 10.09 19.31 10.25C19.15 10.40 18.96 10.53 18.72 10.61C18.48 10.70 18.21 10.74 17.92 10.74ZM23.42 4.89C23.48 4.94 23.55 4.98 23.62 5.01C23.69 5.04 23.77 5.07 23.86 5.07C23.94 5.07 24.02 5.04 24.09 5.01C24.16 4.98 24.23 4.94 24.29 4.89C24.35 4.83 24.40 4.76 24.43 4.69C24.46 4.62 24.49 4.54 24.49 4.45C24.49 4.37 24.46 4.30 24.43 4.21C24.40 4.14 24.35 4.07 24.29 4.02C24.23 3.96 24.16 3.91 24.09 3.88C24.02 3.85 23.94 3.84 23.86 3.84C23.77 3.84 23.69 3.85 23.62 3.88C23.55 3.91 23.48 3.96 23.42 4.02C23.37 4.07 23.32 4.14 23.30 4.21C23.27 4.28 23.24 4.37 23.24 4.45C23.24 4.54 23.27 4.62 23.30 4.69C23.32 4.76 23.37 4.83 23.42 4.89ZM24.92 13.29L24.85 13.29L24.74 13.29C24.70 13.29 24.63 13.27 24.53 13.27C24.43 13.27 24.32 13.26 24.19 13.26L24.19 6.85L23.52 6.85L22.51 6.85L22.51 7.13C22.51 7.28 22.61 7.36 22.79 7.38L22.86 7.38C22.89 7.38 22.93 7.39 22.97 7.39L23.18 7.39C23.28 7.39 23.39 7.41 23.52 7.41L23.52 13.26C23.37 13.26 23.23 13.29 23.11 13.29L22.88 13.29L22.79 13.29C22.61 13.30 22.51 13.38 22.51 13.54L22.51 13.82L23.52 13.82L24.19 13.82L25.20 13.82L25.20 13.54C25.20 13.38 25.10 13.30 24.92 13.29ZM36.06 4.68C35.48 4.17 34.59 3.92 33.43 3.92L31.02 3.92L29.83 3.92L29.83 4.19C29.83 4.34 29.93 4.42 30.11 4.44L30.25 4.44C30.32 4.44 30.42 4.45 30.56 4.45C30.70 4.45 30.86 4.47 31.02 4.47L31.02 13.26C30.86 13.26 30.70 13.27 30.56 13.27C30.42 13.27 30.32 13.29 30.25 13.29L30.11 13.29C29.93 13.30 29.83 13.38 29.83 13.54L29.83 13.82L31.02 13.82L31.74 13.82L32.91 13.82L32.91 13.54C32.91 13.38 32.82 13.30 32.63 13.29L32.51 13.29C32.44 13.29 32.33 13.27 32.19 13.27C32.05 13.27 31.91 13.26 31.74 13.26L31.74 9.83L33.43 9.83C33.98 9.83 34.47 9.74 34.90 9.60C35.34 9.45 35.70 9.25 36.01 8.99C36.32 8.72 36.55 8.41 36.71 8.05C36.88 7.69 36.95 7.29 36.95 6.86C36.95 5.92 36.65 5.18 36.06 4.68ZM36.04 7.81C35.91 8.11 35.73 8.36 35.49 8.57C35.25 8.78 34.96 8.95 34.61 9.07C34.26 9.20 33.87 9.25 33.43 9.25L31.74 9.25L31.74 4.48L33.43 4.48C34.36 4.48 35.06 4.69 35.53 5.10C35.99 5.50 36.23 6.09 36.23 6.85C36.23 7.20 36.16 7.52 36.04 7.81ZM43.39 13.29L43.29 13.29L43.06 13.29C42.97 13.29 42.85 13.27 42.74 13.27L42.74 9.28C42.74 8.89 42.70 8.55 42.60 8.23C42.50 7.91 42.36 7.64 42.18 7.42C42 7.20 41.76 7.03 41.48 6.92C41.20 6.79 40.88 6.73 40.50 6.73C40.00 6.73 39.55 6.83 39.14 7.01C38.74 7.20 38.36 7.48 38.00 7.84L38.11 8.05C38.15 8.13 38.22 8.18 38.32 8.18C38.39 8.18 38.49 8.12 38.58 8.02C38.68 7.92 38.82 7.84 38.99 7.73C39.16 7.62 39.34 7.52 39.58 7.42C39.82 7.32 40.10 7.28 40.43 7.28C40.98 7.28 41.40 7.45 41.68 7.80C41.96 8.15 42.08 8.64 42.08 9.28L42.08 10.01C41.30 10.02 40.63 10.09 40.07 10.21C39.51 10.32 39.05 10.47 38.68 10.65C38.32 10.84 38.07 11.06 37.90 11.31C37.73 11.56 37.65 11.83 37.65 12.12C37.65 12.45 37.70 12.73 37.80 12.95C37.91 13.17 38.05 13.36 38.22 13.50C38.39 13.64 38.60 13.75 38.82 13.82C39.05 13.89 39.27 13.93 39.51 13.93C39.79 13.93 40.05 13.90 40.29 13.85C40.53 13.79 40.74 13.71 40.95 13.61C41.16 13.51 41.36 13.38 41.55 13.23C41.73 13.08 41.92 12.91 42.11 12.73L42.21 13.62C42.24 13.75 42.34 13.82 42.48 13.82L42.49 13.82L42.74 13.82L43.67 13.82L43.67 13.54C43.67 13.38 43.57 13.30 43.39 13.29ZM42.08 12.26C41.92 12.43 41.76 12.60 41.59 12.74C41.43 12.88 41.24 13.01 41.05 13.12C40.85 13.23 40.64 13.30 40.42 13.36C40.19 13.41 39.94 13.44 39.68 13.44C39.49 13.44 39.31 13.43 39.14 13.37C38.98 13.31 38.84 13.24 38.71 13.13C38.58 13.02 38.47 12.88 38.40 12.71C38.32 12.54 38.29 12.35 38.29 12.11C38.29 11.86 38.36 11.63 38.51 11.44C38.67 11.24 38.89 11.09 39.20 10.95C39.51 10.81 39.90 10.70 40.38 10.61C40.85 10.53 41.43 10.47 42.08 10.46ZM50.68 7.63C50.20 7.04 49.53 6.73 48.68 6.73C48.16 6.73 47.71 6.86 47.29 7.11C46.89 7.36 46.52 7.69 46.21 8.11L46.14 7.03C46.14 6.96 46.13 6.92 46.09 6.89C46.05 6.86 45.99 6.86 45.93 6.86L45.57 6.86L44.56 6.86L44.56 7.13C44.56 7.28 44.66 7.36 44.84 7.38L44.91 7.38C44.94 7.38 44.98 7.39 45.02 7.39L45.23 7.39C45.33 7.39 45.44 7.41 45.57 7.41L45.57 15.72C45.42 15.72 45.28 15.75 45.16 15.75L44.93 15.75L44.84 15.75C44.66 15.76 44.56 15.85 44.56 16.00L44.56 16.28L45.57 16.28L46.24 16.28L47.25 16.28L47.25 16.00C47.25 15.85 47.15 15.76 46.97 15.75L46.90 15.75L46.79 15.75C46.75 15.75 46.68 15.74 46.58 15.74C46.48 15.74 46.37 15.72 46.24 15.72L46.24 12.88C46.49 13.22 46.79 13.48 47.14 13.65C47.49 13.82 47.89 13.90 48.37 13.90C48.86 13.90 49.28 13.80 49.66 13.62C50.04 13.44 50.36 13.19 50.61 12.87C50.86 12.54 51.07 12.15 51.20 11.72C51.34 11.28 51.39 10.79 51.39 10.29C51.39 9.10 51.16 8.22 50.68 7.63ZM50.55 11.55C50.46 11.93 50.29 12.25 50.08 12.53C49.87 12.81 49.62 13.01 49.31 13.16C49 13.31 48.64 13.38 48.23 13.38C47.81 13.38 47.45 13.30 47.12 13.13C46.80 12.96 46.51 12.70 46.24 12.29L46.24 8.64C46.54 8.20 46.86 7.87 47.24 7.63C47.61 7.39 48.03 7.28 48.50 7.28C49.21 7.28 49.76 7.52 50.13 8.01C50.51 8.50 50.71 9.25 50.71 10.29C50.71 10.75 50.67 11.17 50.55 11.55ZM55.62 6.73C55.13 6.73 54.68 6.83 54.29 7.00C53.90 7.17 53.58 7.41 53.31 7.71C53.05 8.02 52.84 8.39 52.70 8.81C52.56 9.23 52.47 9.69 52.47 10.19C52.47 10.78 52.56 11.31 52.71 11.77C52.86 12.24 53.07 12.61 53.35 12.94C53.63 13.26 53.97 13.50 54.36 13.66C54.75 13.83 55.19 13.90 55.66 13.90C55.93 13.90 56.20 13.89 56.45 13.83C56.70 13.78 56.95 13.71 57.18 13.62C57.40 13.54 57.61 13.44 57.79 13.31C57.97 13.19 58.13 13.06 58.24 12.92L58.06 12.70C58.03 12.66 57.97 12.63 57.92 12.63C57.88 12.63 57.79 12.66 57.69 12.74C57.60 12.82 57.46 12.91 57.27 13.01C57.11 13.10 56.88 13.17 56.63 13.26C56.38 13.34 56.07 13.38 55.72 13.38C55.33 13.38 54.98 13.31 54.66 13.17C54.33 13.03 54.07 12.84 53.84 12.57C53.62 12.31 53.45 11.97 53.33 11.58C53.20 11.19 53.14 10.71 53.14 10.19L53.14 10.07L58.17 10.07C58.24 10.07 58.28 10.05 58.31 10.01C58.34 9.97 58.37 9.90 58.37 9.80C58.37 9.31 58.30 8.88 58.16 8.50C58.02 8.12 57.83 7.78 57.58 7.53C57.34 7.28 57.05 7.08 56.71 6.94C56.38 6.80 56.01 6.73 55.62 6.73ZM55.64 7.24C55.96 7.24 56.24 7.29 56.50 7.41C56.77 7.52 56.99 7.67 57.18 7.88C57.36 8.09 57.51 8.33 57.61 8.62C57.71 8.92 57.76 9.25 57.76 9.63L53.17 9.63C53.21 9.27 53.30 8.93 53.42 8.64C53.55 8.34 53.72 8.09 53.93 7.88C54.14 7.67 54.39 7.52 54.67 7.41C54.95 7.29 55.27 7.24 55.64 7.24ZM64.12 6.80C63.94 6.76 63.76 6.73 63.55 6.73C63 6.73 62.54 6.89 62.16 7.21C61.78 7.53 61.49 7.98 61.26 8.54L61.21 7.07C61.21 6.99 61.18 6.93 61.15 6.90C61.12 6.87 61.07 6.86 60.98 6.86L60.63 6.86L60.63 6.86L59.63 6.86L59.63 7.13C59.63 7.31 59.72 7.36 59.89 7.38C59.98 7.38 60.06 7.38 60.63 7.41L60.63 13.26C60.06 13.29 59.98 13.29 59.89 13.29C59.72 13.30 59.63 13.36 59.63 13.54L59.63 13.82L60.63 13.82L61.29 13.82L61.29 13.82L62.30 13.82L62.30 13.54C62.30 13.36 62.20 13.30 62.03 13.29C61.95 13.29 61.87 13.29 61.29 13.26L61.29 9.30C61.50 8.68 61.78 8.20 62.12 7.88C62.45 7.56 62.89 7.39 63.42 7.39C63.56 7.39 63.69 7.41 63.80 7.42C63.91 7.43 64.02 7.45 64.09 7.48C64.18 7.50 64.22 7.53 64.27 7.55C64.33 7.56 64.37 7.57 64.40 7.57C64.48 7.57 64.53 7.53 64.54 7.46L64.62 7.00C64.47 6.92 64.30 6.85 64.12 6.80ZM76.59 3.92L76.40 3.92L69.10 3.92L68.89 3.92L68.80 3.92L68.80 5.96L69.15 5.96C69.34 5.96 69.43 5.85 69.44 5.63C69.44 5.53 69.47 5.17 69.50 4.52L72.39 4.52L72.39 13.26C72.23 13.26 72.09 13.27 71.95 13.27C71.81 13.27 71.69 13.29 71.62 13.29L71.50 13.29C71.32 13.30 71.22 13.38 71.22 13.54L71.22 13.82L72.39 13.82L73.11 13.82L74.30 13.82L74.30 13.54C74.30 13.38 74.20 13.30 74.02 13.29L73.88 13.29C73.81 13.29 73.71 13.27 73.57 13.27C73.43 13.27 73.28 13.26 73.11 13.26L73.11 4.52L75.99 4.52C76.03 5.24 76.05 5.60 76.05 5.63C76.06 5.85 76.16 5.96 76.36 5.96L76.69 5.96L76.69 3.92ZM82.32 6.80C82.14 6.76 81.96 6.73 81.75 6.73C81.20 6.73 80.74 6.89 80.36 7.21C79.98 7.53 79.69 7.98 79.46 8.54L79.41 7.07C79.41 6.99 79.38 6.93 79.35 6.90C79.32 6.87 79.27 6.86 79.18 6.86L78.83 6.86L78.83 6.86L77.83 6.86L77.83 7.13C77.83 7.31 77.92 7.36 78.09 7.38C78.18 7.38 78.26 7.38 78.83 7.41L78.83 13.26C78.26 13.29 78.18 13.29 78.09 13.29C77.92 13.30 77.83 13.36 77.83 13.54L77.83 13.82L78.83 13.82L79.49 13.82L79.49 13.82L80.50 13.82L80.50 13.54C80.50 13.36 80.40 13.30 80.23 13.29C80.15 13.29 80.07 13.29 79.49 13.26L79.49 9.30C79.70 8.68 79.98 8.20 80.32 7.88C80.65 7.56 81.09 7.39 81.62 7.39C81.76 7.39 81.89 7.41 82.00 7.42C82.11 7.43 82.22 7.45 82.29 7.48C82.38 7.50 82.42 7.53 82.47 7.55C82.53 7.56 82.57 7.57 82.60 7.57C82.68 7.57 82.73 7.53 82.74 7.46L82.82 7.00C82.67 6.92 82.50 6.85 82.32 6.80ZM89.29 13.29L89.19 13.29L88.97 13.29C88.87 13.29 88.76 13.27 88.65 13.27L88.65 9.28C88.65 8.89 88.61 8.55 88.51 8.23C88.41 7.91 88.27 7.64 88.09 7.42C87.91 7.20 87.67 7.03 87.39 6.92C87.11 6.79 86.79 6.73 86.41 6.73C85.90 6.73 85.46 6.83 85.05 7.01C84.64 7.20 84.27 7.48 83.90 7.84L84.01 8.05C84.06 8.13 84.13 8.18 84.22 8.18C84.29 8.18 84.39 8.12 84.49 8.02C84.59 7.92 84.73 7.84 84.90 7.73C85.06 7.62 85.25 7.52 85.48 7.42C85.72 7.32 86.00 7.28 86.34 7.28C86.88 7.28 87.30 7.45 87.58 7.80C87.86 8.15 87.99 8.64 87.99 9.28L87.99 10.01C87.21 10.02 86.53 10.09 85.97 10.21C85.41 10.32 84.95 10.47 84.59 10.65C84.22 10.84 83.97 11.06 83.80 11.31C83.64 11.56 83.55 11.83 83.55 12.12C83.55 12.45 83.61 12.73 83.71 12.95C83.82 13.17 83.96 13.36 84.13 13.50C84.29 13.64 84.50 13.75 84.73 13.82C84.95 13.89 85.18 13.93 85.41 13.93C85.69 13.93 85.96 13.90 86.20 13.85C86.44 13.79 86.65 13.71 86.86 13.61C87.07 13.51 87.26 13.38 87.46 13.23C87.64 13.08 87.82 12.91 88.02 12.73L88.12 13.62C88.14 13.75 88.24 13.82 88.38 13.82L88.40 13.82L88.65 13.82L89.57 13.82L89.57 13.54C89.57 13.38 89.47 13.30 89.29 13.29ZM87.99 12.26C87.82 12.43 87.67 12.60 87.50 12.74C87.33 12.88 87.15 13.01 86.95 13.12C86.76 13.23 86.55 13.30 86.32 13.36C86.10 13.41 85.85 13.44 85.58 13.44C85.40 13.44 85.22 13.43 85.05 13.37C84.88 13.31 84.74 13.24 84.62 13.13C84.49 13.02 84.38 12.88 84.31 12.71C84.22 12.54 84.20 12.35 84.20 12.11C84.20 11.86 84.27 11.63 84.42 11.44C84.57 11.24 84.80 11.09 85.11 10.95C85.41 10.81 85.81 10.70 86.28 10.61C86.76 10.53 87.33 10.47 87.99 10.46ZM97.47 13.54C97.47 13.38 97.38 13.30 97.20 13.29L97.13 13.29L97.03 13.29C96.99 13.29 96.92 13.27 96.84 13.27L96.53 13.27L96.53 3.63L95.87 3.63L94.86 3.63L94.86 3.91C94.86 4.06 94.96 4.14 95.14 4.16L95.21 4.16C95.24 4.16 95.27 4.17 95.31 4.17L95.54 4.17C95.63 4.17 95.75 4.19 95.87 4.19L95.87 7.76C95.62 7.42 95.33 7.17 94.98 7.00C94.63 6.82 94.22 6.73 93.74 6.73C93.25 6.73 92.82 6.83 92.44 7.01C92.06 7.20 91.76 7.46 91.49 7.78C91.22 8.11 91.04 8.50 90.90 8.93C90.76 9.37 90.71 9.84 90.71 10.35C90.71 11.54 90.94 12.43 91.42 13.02C91.90 13.61 92.57 13.90 93.42 13.90C93.94 13.90 94.40 13.79 94.82 13.54C95.24 13.29 95.59 12.95 95.90 12.53L95.97 13.64C95.98 13.76 96.05 13.82 96.17 13.82L96.53 13.82L97.47 13.82L97.47 13.61ZM95.87 12.01C95.58 12.43 95.24 12.77 94.86 13.01C94.49 13.24 94.08 13.37 93.62 13.37C92.90 13.37 92.34 13.13 91.97 12.64C91.59 12.15 91.39 11.38 91.39 10.35C91.39 9.88 91.43 9.48 91.55 9.10C91.66 8.72 91.81 8.39 92.02 8.12C92.23 7.85 92.48 7.63 92.79 7.48C93.10 7.32 93.46 7.25 93.87 7.25C94.28 7.25 94.65 7.34 94.98 7.50C95.30 7.67 95.61 7.95 95.87 8.34ZM101.70 6.73C101.21 6.73 100.76 6.83 100.37 7.00C99.97 7.17 99.65 7.41 99.39 7.71C99.12 8.02 98.91 8.39 98.77 8.81C98.63 9.23 98.55 9.69 98.55 10.19C98.55 10.78 98.63 11.31 98.78 11.77C98.94 12.24 99.15 12.61 99.43 12.94C99.71 13.26 100.04 13.50 100.44 13.66C100.83 13.83 101.26 13.90 101.74 13.90C102.00 13.90 102.27 13.89 102.52 13.83C102.77 13.78 103.03 13.71 103.25 13.62C103.47 13.54 103.68 13.44 103.87 13.31C104.05 13.19 104.20 13.06 104.31 12.92L104.13 12.70C104.10 12.66 104.05 12.63 103.99 12.63C103.95 12.63 103.87 12.66 103.77 12.74C103.67 12.82 103.53 12.91 103.35 13.01C103.18 13.10 102.96 13.17 102.70 13.26C102.45 13.34 102.14 13.38 101.79 13.38C101.40 13.38 101.05 13.31 100.73 13.17C100.41 13.03 100.14 12.84 99.92 12.57C99.69 12.31 99.53 11.97 99.40 11.58C99.27 11.19 99.22 10.71 99.22 10.19L99.22 10.07L104.24 10.07C104.31 10.07 104.36 10.05 104.38 10.01C104.41 9.97 104.44 9.90 104.44 9.80C104.44 9.31 104.37 8.88 104.23 8.50C104.09 8.12 103.91 7.78 103.66 7.53C103.42 7.28 103.12 7.08 102.79 6.94C102.45 6.80 102.09 6.73 101.70 6.73ZM101.71 7.24C102.03 7.24 102.31 7.29 102.58 7.41C102.84 7.52 103.07 7.67 103.25 7.88C103.43 8.09 103.59 8.33 103.68 8.62C103.78 8.92 103.84 9.25 103.84 9.63L99.25 9.63C99.29 9.27 99.37 8.93 99.50 8.64C99.62 8.34 99.79 8.09 100.00 7.88C100.21 7.67 100.46 7.52 100.74 7.41C101.02 7.29 101.35 7.24 101.71 7.24ZM110.19 6.80C110.01 6.76 109.83 6.73 109.62 6.73C109.07 6.73 108.61 6.89 108.23 7.21C107.86 7.53 107.56 7.98 107.34 8.54L107.28 7.07C107.28 6.99 107.25 6.93 107.23 6.90C107.20 6.87 107.14 6.86 107.06 6.86L106.71 6.86L106.71 6.86L105.70 6.86L105.70 7.13C105.70 7.31 105.80 7.36 105.97 7.38C106.05 7.38 106.13 7.38 106.71 7.41L106.71 13.26C106.13 13.29 106.05 13.29 105.97 13.29C105.80 13.30 105.70 13.36 105.70 13.54L105.70 13.82L106.71 13.82L107.37 13.82L107.37 13.82L108.37 13.82L108.37 13.54C108.37 13.36 108.28 13.30 108.11 13.29C108.02 13.29 107.94 13.29 107.37 13.26L107.37 9.30C107.58 8.68 107.86 8.20 108.19 7.88C108.53 7.56 108.96 7.39 109.49 7.39C109.63 7.39 109.76 7.41 109.87 7.42C109.98 7.43 110.10 7.45 110.17 7.48C110.25 7.50 110.29 7.53 110.35 7.55C110.40 7.56 110.45 7.57 110.47 7.57C110.56 7.57 110.60 7.53 110.61 7.46L110.70 7.00C110.54 6.92 110.38 6.85 110.19 6.80Z"></path></g><defs data-v-423bf9ae=""><linearGradient data-v-423bf9ae="" gradientTransform="rotate(25)" id="beef65d4-6904-43ac-9f24-d946611c3928" x1="0%" y1="0%" x2="100%" y2="0%"><stop data-v-423bf9ae="" offset="0%" style="stop-color: rgb(146, 13, 233); stop-opacity: 1;"></stop><stop data-v-423bf9ae="" offset="100%" style="stop-color: rgb(21, 54, 241); stop-opacity: 1;"></stop></linearGradient></defs><g data-v-423bf9ae="" id="7d08584b-d5be-4398-bfc2-369504f22238" transform="matrix(1.595744637678846,0,0,1.595744637678846,-11.192274532121303,-33.987233783174474)" stroke="none" fill="url(#beef65d4-6904-43ac-9f24-d946611c3928)"><path d="M68.9 25.9c-.1-1.3 1-2.5 2.3-2.6l13.3-.7c.7 0 1.4.2 1.9.7.5.5.7 1.2.7 1.9l-.7 13.3c-.1 1.3-1.1 2.3-2.4 2.3h-.1c-1.3-.1-2.4-1.2-2.3-2.6l.4-10.6-10.6.6c-1.4.1-2.5-1-2.5-2.3zM90 73.4H15.8l10.8-10.8 4.2 4.2c.9.9 2.5.9 3.5 0l11.9-11.9 4.2 4.2c.5.5 1.1.7 1.7.7.6 0 1.3-.3 1.7-.7l25.8-25.8c1-1 1-2.5 0-3.5s-2.5-1-3.5 0l-24 24-4.2-4.2c-.5-.5-1.1-.7-1.7-.7-.6 0-1.3.3-1.7.7l-11.9 12-4.2-4.2c-.5-.5-1.1-.7-1.7-.7s-1.3.3-1.7.7L12.4 69.9V24.2c0-1.3-1.1-2.4-2.4-2.4s-2.4 1.1-2.4 2.4v51.6c0 1.3 1.1 2.4 2.4 2.4h80c1.3 0 2.4-1.1 2.4-2.4.1-1.3-1-2.4-2.4-2.4z"></path></g><!----></svg>